<?xml version="1.0" encoding="UTF-8"?>
<svg version="1.1" xmlns="http://www.w3.org/2000/svg" width="500" height="500">
<path d="M0 0 C76.89 0 153.78 0 233 0 C233 3.3 233 6.6 233 10 C230.36 10 227.72 10 225 10 C225.350625 11.216875 225.70125 12.43375 226.0625 13.6875 C228.01825537 22.54427789 226.98985187 31.87780156 223 40 C219.87570531 44.39090065 216.66697104 47.30352784 212 50 C211.34 50 210.68 50 210 50 C214.46894556 57.38411866 219.37832113 64.24202428 224.6875 71.02734375 C227.22523992 74.28953984 229.63568969 77.61115523 232 81 C230.7391988 82.03319813 229.46596742 83.05124379 228.1875 84.0625 C227.12595703 84.91521484 227.12595703 84.91521484 226.04296875 85.78515625 C225.36878906 86.18605469 224.69460938 86.58695312 224 87 C220.58862148 85.86287383 220.03963212 85.08786087 217.9609375 82.2734375 C217.38448486 81.49581055 216.80803223 80.71818359 216.21411133 79.91699219 C215.60720459 79.07813477 215.00029785 78.23927734 214.375 77.375 C213.75197998 76.52067383 213.12895996 75.66634766 212.48706055 74.78613281 C194.42624597 49.72176422 194.42624597 49.72176422 194 38 C194.9375 34.625 194.9375 34.625 197 32 C200.80060539 30.87850988 203.21580841 30.18490616 206.85546875 31.84765625 C208.5 32.9375 208.5 32.9375 211 35 C213.90655432 29.31658013 214.38461638 24.88476087 214.1875 18.5625 C214.0946875 14.3240625 214.0946875 14.3240625 214 10 C203.77 10 193.54 10 183 10 C183 34.75 183 59.5 183 85 C179.04 85 175.08 85 171 85 C171 60.25 171 35.5 171 10 C165.72 10 160.44 10 155 10 C155 34.75 155 59.5 155 85 C151.37 85 147.74 85 144 85 C144 68.5 144 52 144 35 C136.08 35.495 136.08 35.495 128 36 C128.969375 37.77375 129.93875 39.5475 130.9375 41.375 C134.8984991 49.34381853 136.06575828 56.34649198 133.796875 65.0234375 C132.27003536 68.81059857 129.60261231 71.01056109 126.203125 73.109375 C120.82326288 75.28421288 114.13532027 74.64462499 108.6875 73 C96.62147407 64.02063187 91.56217507 48.38352071 89 34 C89.33 32.68 89.66 31.36 90 30 C92.97 29.34 95.94 28.68 99 28 C99.1858667 28.64960693 99.3717334 29.29921387 99.56323242 29.96850586 C100.42664348 32.96157549 101.30694075 35.94943247 102.1875 38.9375 C102.47947266 39.95908203 102.77144531 40.98066406 103.07226562 42.03320312 C106.58059832 54.13565138 106.58059832 54.13565138 115 63 C117.58517587 63.50059916 117.58517587 63.50059916 120 63 C122.89137674 58.66293489 122.80154363 55.0901446 122 50 C120.03249448 44.94158674 117.67648496 40.07869099 114.2578125 35.83984375 C113.84273437 35.23269531 113.42765625 34.62554687 113 34 C113.8067818 30.40615382 114.95308582 28.07037127 117 25 C119.70556641 24.65942383 119.70556641 24.65942383 123.1015625 24.70703125 C124.31328125 24.71669922 125.525 24.72636719 126.7734375 24.73632812 C128.04445313 24.76146484 129.31546875 24.78660156 130.625 24.8125 C131.90375 24.82603516 133.1825 24.83957031 134.5 24.85351562 C137.66684469 24.88896538 140.83347397 24.94277363 144 25 C144 20.05 144 15.1 144 10 C122.55 10 101.1 10 79 10 C79 34.75 79 59.5 79 85 C75.04 85 71.08 85 67 85 C67 60.25 67 35.5 67 10 C61.72 10 56.44 10 51 10 C51 34.75 51 59.5 51 85 C47.37 85 43.74 85 40 85 C40 78.4 40 71.8 40 65 C36.04 66.98 36.04 66.98 32 69 C25.41703483 70.04589166 18.47012035 69.90384924 12.6484375 66.37890625 C6.26302521 61.03755426 4.97666797 53.9299608 4 46 C0.2960299 46.18544251 -3.40111518 46.40226068 -7.09765625 46.69921875 C-9.28906386 46.86812604 -11.48574455 47.00353526 -13.68359375 47.01953125 C-16.33623493 47.22285312 -17.73565714 47.56649017 -20 49 C-23.57090528 53.36640398 -26.31598421 58.05320229 -29 63 C-29.54140625 63.969375 -30.0828125 64.93875 -30.640625 65.9375 C-32.90817586 70.21196368 -34.75412614 74.08252274 -35 79 C-34.67 79.66 -34.34 80.32 -34 81 C-23.23346851 81.8246705 -15.59941784 78.81380518 -7.30859375 72.015625 C-3.83466821 68.98255296 -0.4308969 65.87653716 2.93359375 62.72265625 C5 61 5 61 7 61 C5.69587421 68.18859584 -0.65625011 72.95301203 -6.1875 77.1875 C-15.19817977 83.41998928 -23.1733042 86.55290846 -34.1875 86.56640625 C-37.69999845 85.85902809 -38.90131148 84.87890684 -41 82 C-42.97622078 73.71350182 -39.58275668 66.31076025 -36 59 C-35.52304688 58.01644531 -35.04609375 57.03289062 -34.5546875 56.01953125 C-33.39316736 53.66662332 -32.21038206 51.328054 -31 49 C-35.00053521 46.73303005 -38.98484783 46.26040817 -43.48046875 46.83984375 C-48.62650952 49.20941601 -50.43062223 54.97844588 -52.59371948 59.92712402 C-53.81247925 62.71471329 -55.1145894 65.46043737 -56.41246033 68.21185303 C-57.05506815 69.57744412 -57.6931708 70.94516459 -58.32667542 72.31500244 C-65.12085535 86.9912301 -73.92377655 104.00850221 -88.375 112.375 C-93.56503797 113.61072333 -98.14798832 113.9851126 -102.9375 111.4375 C-105.50231633 108.40635342 -106.28129174 105.88102459 -107 102 C-106.505 101.01 -106.505 101.01 -106 100 C-105.34 100 -104.68 100 -104 100 C-103.525625 100.969375 -103.05125 101.93875 -102.5625 102.9375 C-101.29806053 105.80477437 -101.29806053 105.80477437 -100 107 C-93.92390094 107.62001011 -89.93735006 106.3439483 -85 103 C-79.32180548 97.63497385 -75.67731453 91.35129469 -72.1875 84.4375 C-71.6812207 83.45257568 -71.17494141 82.46765137 -70.65332031 81.45288086 C-65.2810288 70.8500713 -60.58355859 59.96200627 -56 49 C-59.63 48.34 -63.26 47.68 -67 47 C-67.33 45.35 -67.66 43.7 -68 42 C-64.26034036 39.50689357 -62.70929359 39.9396739 -58.3125 40.375 C-57.13300781 40.48585937 -55.95351562 40.59671875 -54.73828125 40.7109375 C-53.83464844 40.80632812 -52.93101562 40.90171875 -52 41 C-51.62294922 39.7315625 -51.62294922 39.7315625 -51.23828125 38.4375 C-49.90010566 34.7226908 -48.15979359 31.40229929 -46.1875 28 C-45.6915332 27.11441406 -45.6915332 27.11441406 -45.18554688 26.2109375 C-41.29193003 19.42513309 -37.23539706 14.30035655 -30 11 C-25.82854936 10.31894683 -24.3718588 10.78249768 -20.6875 12.9375 C-18 15 -18 15 -17 16 C-16.95919217 17.99958364 -16.95745644 20.00045254 -17 22 C-18.875 22.625 -18.875 22.625 -21 23 C-21.99 22.01 -21.99 22.01 -23 21 C-26.53217579 21.32110689 -29.63449506 21.87816502 -33 23 C-34.05037629 24.7213733 -34.05037629 24.7213733 -35 27 C-37.31772893 31.34180894 -39.66144679 35.66934591 -42 40 C-35.73 40 -29.46 40 -23 40 C-22.34 38.68 -21.68 37.36 -21 36 C-18.93111733 33.0299803 -16.78600214 30.32455251 -14 28 C-10.5625 28 -10.5625 28 -8 29 C-7.1875 31.0625 -7.1875 31.0625 -7 34 C-8.43394541 36.58966261 -10.13283108 38.67742403 -12 41 C-6.39 41 -0.78 41 5 41 C5.33 38.69 5.66 36.38 6 34 C8.17430038 29.38226761 10.77816716 25.79793165 15.0625 23 C22.42993846 20.49193584 29.40343643 20.48068729 37 22 C37 25.3 37 28.6 37 32 C33.04 31.67 29.08 31.34 25 31 C29.29 38.26 33.58 45.52 38 53 C40.17782681 50.82217319 39.26089916 45.74896922 39.31640625 42.71484375 C39.3475779 41.31861534 39.3475779 41.31861534 39.37937927 39.8941803 C39.44497931 36.90869818 39.50380802 33.92312516 39.5625 30.9375 C39.6056753 28.91861024 39.64928925 26.8997298 39.69335938 24.88085938 C39.80150018 19.92066487 39.90049549 14.96040549 40 10 C26.8 10 13.6 10 0 10 C0 6.7 0 3.4 0 0 Z M17 37 C15.53876214 39.92247573 15.7522385 42.55853839 15.6875 45.8125 C15.65011719 47.03582031 15.61273438 48.25914062 15.57421875 49.51953125 C16.07019305 53.5737799 17.15100281 55.14043139 20 58 C22.40545638 59.20272819 23.94996953 59.10071472 26.625 59.0625 C27.44226563 59.05347656 28.25953125 59.04445313 29.1015625 59.03515625 C29.72804688 59.02355469 30.35453125 59.01195312 31 59 C24.74915826 47.84969023 24.74915826 47.84969023 18 37 C17.67 37 17.34 37 17 37 Z " fill="#000000" transform="translate(267,163)"/>
<path d="M0 0 C1.47146484 -0.02416992 1.47146484 -0.02416992 2.97265625 -0.04882812 C10.57352441 -0.05388862 17.02123448 1.01799508 23.4375 5.25 C26.65748447 8.46998447 27.78888205 11.20748077 27.8125 15.75 C27.68017205 19.7860026 27.36369766 22.27524491 24.5 25.3125 C18.54685144 29.05940924 13.42723982 29.75232475 6.5 29.3125 C6.5 28.3225 6.5 27.3325 6.5 26.3125 C7.18707031 26.19132812 7.87414062 26.07015625 8.58203125 25.9453125 C9.48308594 25.77773437 10.38414063 25.61015625 11.3125 25.4375 C12.20582031 25.27507812 13.09914063 25.11265625 14.01953125 24.9453125 C16.72727846 24.40061551 16.72727846 24.40061551 19.5 22.3125 C20.50970603 18.49004144 20.89714392 16.23220172 19.3125 12.5625 C14.90743368 7.09414181 10.20320343 6.21025046 3.5 5.3125 C-10.08478477 3.86412221 -24.29012365 8.26248937 -35.1875 16.29296875 C-38.43644302 19.13030581 -39.72880397 21.36137039 -41.5 25.3125 C-41.84223614 28.51083907 -41.84223614 28.51083907 -40.5 31.3125 C-36.24219061 34.65383024 -32.43121585 36.1127121 -27.1875 37.3125 C-26.50252441 37.47419678 -25.81754883 37.63589355 -25.11181641 37.80249023 C-22.91076039 38.31946158 -20.70630494 38.81843692 -18.5 39.3125 C-16.19947871 39.82800795 -13.89935009 40.34477464 -11.60083008 40.86914062 C-10.15586562 41.19753443 -8.70913956 41.51830491 -7.26049805 41.83007812 C0.23661195 43.52048735 5.09077794 45.88763357 9.5 52.3125 C11.22186918 57.47810753 10.30765423 62.28755292 8.5 67.3125 C2.35736838 79.16738778 -7.54826513 85.1711802 -19.90625 89.5078125 C-30.28517708 92.55380197 -40.7533126 93.48331397 -51.5 94.3125 C-50.18 94.9725 -48.86 95.6325 -47.5 96.3125 C-47.5 96.9725 -47.5 97.6325 -47.5 98.3125 C-54.29047741 99.08123329 -57.88405692 97.27133522 -63.69140625 93.83203125 C-66.40314702 92.36490029 -68.84532162 91.4861841 -71.8125 90.6875 C-78.92842672 88.73146327 -84.71153381 84.72717635 -88.5 78.3125 C-89.3274222 74.5529853 -89.29678279 70.96006337 -89.1875 67.125 C-89.20232422 66.14080078 -89.21714844 65.15660156 -89.23242188 64.14257812 C-89.15029573 57.03625106 -89.15029573 57.03625106 -86.1484375 53.6953125 C-83.11176787 52.10979473 -80.93378868 51.38555933 -77.5 51.3125 C-74.92630259 52.7702954 -73.72211689 53.64494869 -72.77734375 56.484375 C-72.66519531 57.33515625 -72.55304688 58.1859375 -72.4375 59.0625 C-72.21513672 60.51462891 -72.21513672 60.51462891 -71.98828125 61.99609375 C-71.82714844 63.09050781 -71.66601562 64.18492187 -71.5 65.3125 C-71.06271862 67.92293733 -70.60681683 70.52312472 -70.125 73.125 C-69.80402344 74.95998047 -69.80402344 74.95998047 -69.4765625 76.83203125 C-68.15874556 81.52873084 -65.93305998 84.87944002 -62.5 88.3125 C-45.02107015 91.6832423 -26.23524651 86.9578112 -11.5 77.3125 C-5.69836594 72.92353148 -1.99328903 67.5096635 -0.5 60.3125 C-1.02018265 57.27841202 -1.02018265 57.27841202 -3.5 55.3125 C-10.21489891 51.3875943 -16.92622034 49.87534342 -24.5 48.3125 C-44.07108141 44.27402288 -44.07108141 44.27402288 -50.5 35.3125 C-52.03597454 32.24055092 -51.7265038 29.71005707 -51.5 26.3125 C-47.66498746 16.4222045 -39.70375849 10.16998876 -30.27734375 5.828125 C-20.06480086 1.76699683 -10.97521598 -0.03605524 0 0 Z M-82.5 56.3125 C-84.57847251 58.6219139 -85.45957117 60.47071396 -85.609375 63.58984375 C-85.14959893 70.37154078 -83.56354034 76.23581142 -78.6796875 81.140625 C-76.99483938 82.60037196 -75.29014227 83.98497877 -73.5 85.3125 C-72.84 84.9825 -72.18 84.6525 -71.5 84.3125 C-72.098125 83.24 -72.69625 82.1675 -73.3125 81.0625 C-75.99526904 75.71592142 -77.18856746 70.11694699 -78.5 64.3125 C-78.89125725 62.72802967 -79.28638892 61.14450454 -79.6875 59.5625 C-79.955625 58.49 -80.22375 57.4175 -80.5 56.3125 C-81.16 56.3125 -81.82 56.3125 -82.5 56.3125 Z " fill="#000000" transform="translate(88.5,162.6875)"/>
<path d="M0 0 C1.15185547 1.66113281 1.15185547 1.66113281 2 4 C1.12548828 6.56542969 1.12548828 6.56542969 -0.4296875 9.421875 C-0.97753906 10.44667969 -1.52539062 11.47148437 -2.08984375 12.52734375 C-2.67894531 13.59082031 -3.26804687 14.65429688 -3.875 15.75 C-4.45636719 16.82894531 -5.03773437 17.90789062 -5.63671875 19.01953125 C-7.07708181 21.68774479 -8.53181704 24.34702313 -10 27 C-9.154375 26.00355469 -8.30875 25.00710937 -7.4375 23.98046875 C-4.03726167 20.0165172 -0.54468314 16.14741374 3 12.3125 C3.59039062 11.66216797 4.18078125 11.01183594 4.7890625 10.34179688 C8.25783817 6.59414386 11.54572734 3.52966641 16 1 C19.08856423 1.1715869 19.78643048 1.78643048 22 4 C21.70396915 8.11000967 20.1640562 10.47911349 17.6875 13.6875 C13.35066872 19.70541227 9.35276275 25.88565417 10.1875 33.5625 C10.63794166 36.81310595 10.63794166 36.81310595 12 38 C17.77672983 38.56634606 20.51452972 37.62421374 25 34 C26.72225383 31.63012609 28.02072045 29.12432531 29.3125 26.5 C29.65861328 25.83613281 30.00472656 25.17226562 30.36132812 24.48828125 C34.37703695 16.64473303 35.29730069 8.6148776 33 0 C35.375 0.25 35.375 0.25 38 1 C41.55942039 6.15502264 40.71448825 13.08083442 40 19 C37.11942747 27.16473967 32.78339453 34.54232455 25.375 39.25 C24.59898437 39.75015625 23.82296875 40.2503125 23.0234375 40.765625 C18.4549415 43.55258395 14.28517278 43.74907961 9 43 C5.61175491 40.45881618 3.53765856 37.91898819 2 34 C1.8046875 30.765625 1.8046875 30.765625 1.875 27.25 C1.89304687 26.07953125 1.91109375 24.9090625 1.9296875 23.703125 C1.95289062 22.81109375 1.97609375 21.9190625 2 21 C-5.06831809 28.4733793 -11.02031271 36.65701718 -17 45 C-22.875 43.125 -22.875 43.125 -24 42 C-23.65105071 35.22262928 -21.54807328 29.78531127 -18.8125 23.625 C-18.20510986 22.23498779 -18.20510986 22.23498779 -17.58544922 20.81689453 C-8.05215883 -0.65287774 -8.05215883 -0.65287774 0 0 Z " fill="#000000" transform="translate(123,204)"/>
<path d="M0 0 C2.75 0.4375 2.75 0.4375 4.75 1.4375 C4.20932278 5.16736586 3.34684914 7.40165703 0.984375 10.328125 C0.14326172 11.39353516 0.14326172 11.39353516 -0.71484375 12.48046875 C-1.30394531 13.20878906 -1.89304688 13.93710938 -2.5 14.6875 C-10.6861906 24.34145096 -10.6861906 24.34145096 -14.5625 36 C-14.459375 36.804375 -14.35625 37.60875 -14.25 38.4375 C-4.21944028 38.21944435 3.88261732 30.14554665 10.75 23.4375 C11.513125 22.468125 12.27625 21.49875 13.0625 20.5 C13.619375 19.819375 14.17625 19.13875 14.75 18.4375 C15.74 18.4375 16.73 18.4375 17.75 18.4375 C16.29248922 26.67243593 7.07043469 33.59389891 0.75 38.4375 C-5.1663611 42.23168809 -10.18677316 44.53351796 -17.25 43.4375 C-19.75 42.125 -19.75 42.125 -21.25 39.4375 C-23.13067323 27.58534056 -17.82828971 18.58704225 -11.265625 9.15625 C-4.97375691 0.6695442 -4.97375691 0.6695442 0 0 Z " fill="#000000" transform="translate(182.25,206.5625)"/>
<path d="M0 0 C3.3125 1 3.3125 1 5.3125 4 C5.61328125 6.15625 5.61328125 6.15625 5.625 8.5 C5.64175781 9.2734375 5.65851563 10.046875 5.67578125 10.84375 C5.22211173 13.5364981 4.50013342 14.40076454 2.3125 16 C-3.79514873 16.65439093 -3.79514873 16.65439093 -6.5625 14.625 C-8.85962797 11.30692627 -9.16193748 9.0327186 -8.6875 5 C-5.95681997 1.11084966 -4.82097089 0 0 0 Z " fill="#000000" transform="translate(383.6875,247)"/>
<path d="M0 0 C3.46464111 0.27173656 4.68165104 0.93690865 7.1875 3.25 C6.875 5.625 6.875 5.625 6.1875 8.25 C3.1875 10.25 3.1875 10.25 0.125 10.0625 C-2.8125 9.25 -2.8125 9.25 -4.8125 6.25 C-4.11196524 0.36550802 -4.11196524 0.36550802 0 0 Z " fill="#000000" transform="translate(191.8125,191.75)"/>
</svg>
